<svg id="Layer_1" data-name="Layer 1" xmlns="http://www.w3.org/2000/svg" viewBox="0 0 100 100"><defs><style>.cls-1{fill:orange;}</style></defs><path class="cls-1" d="M44.52,17.29a.11.11,0,0,1-.12-.12c0-.46.41-.69,1.24-.69,1.29.34,1.93,1.31,1.93,2.93A15.71,15.71,0,0,1,46.17,25a73.71,73.71,0,0,1-4,8q-2.55,4.57-5.17,8.71T29.83,53.33q-4.54,7-7.34,11.61T17.2,74a77.92,77.92,0,0,0-3.95,8,16,16,0,0,0-1.47,5.73c0,1.78.71,2.84,2.12,3.17.71.09,1.06.4,1.06.94s-.31.74-.94.74a3.29,3.29,0,0,1-1.61-.49,13,13,0,0,1-5.64-5,13.79,13.79,0,0,1-1.77-7q0-5.85,3.52-13.44a100,100,0,0,1,8.8-15.16q5.3-7.56,10.46-13.81T39.05,24.26q2.67-3,4.07-4.7a6,6,0,0,0,1.4-2ZM9.11,14.86a2,2,0,0,1,1.52-1.92,7.6,7.6,0,0,1,2.9-.63,1,1,0,0,1,.49.13c0,.08-.08.16-.24.25-1.46.66-2.18,1.12-2.18,1.37s.31.24.93.24a31.85,31.85,0,0,0,4.58-.49l11.6-1.87Q36,10.64,41,9.79T51.52,8.21Q57,7.46,62.26,6.93t9.28-.53a29.09,29.09,0,0,1,4.6.31,38,38,0,0,1,6.47,1.37,24.73,24.73,0,0,1,6.13,2.8,16.57,16.57,0,0,1,4.55,4.17A8.64,8.64,0,0,1,95,20.22q0,5.1-6.82,11.08T66.06,43.81c-.58.25-.87.49-.87.74,0,.42.54.71,1.62.88q10.45,1.3,16,6.25a15.28,15.28,0,0,1,5.6,11.86q0,9.27-9.61,17.7T52.43,92.73a48.8,48.8,0,0,1-8.78.87,32.06,32.06,0,0,1-7.53-.75,46.35,46.35,0,0,1-6.54-2.18A17.55,17.55,0,0,0,24,89.18a8.7,8.7,0,0,0-2.05.25,4.59,4.59,0,0,1-1.37.25,2.16,2.16,0,0,1-1.87-.78,3.19,3.19,0,0,1-.56-1.9c0-1.37.42-2.13,1.25-2.3a130.77,130.77,0,0,0,20.41-5.76,118,118,0,0,0,17.8-8.21,59.21,59.21,0,0,0,12.3-9q4.44-4.44,4.45-7.81c0-2-1.35-3.55-4-4.54a11.21,11.21,0,0,0-4.23-.69A40.18,40.18,0,0,0,52.93,51.4a44.67,44.67,0,0,0-13,7,3.4,3.4,0,0,1-2.06.75c-1.16,0-2-.89-2.42-2.68a8.47,8.47,0,0,1-.25-2.11,12.57,12.57,0,0,1,2.55-7.25,34,34,0,0,1,6.56-6.88A101.5,101.5,0,0,1,52.93,34q4.6-3,11-6.73,8.4-5.1,12.29-7.9t3.89-5q0-2.67-7.4-4a26.18,26.18,0,0,0-3.8-.25,54.19,54.19,0,0,0-11,1.28q-6.09,1.27-16,3.83-8.91,2.3-14.47,3.52A46.42,46.42,0,0,1,17.88,20c-2.73,0-4.73-.48-6-1.43Q9.1,16.37,9.11,14.86Z"/></svg>